# Made using Asset Forge (www.assetforge.io) version 1.3 

mtllib DoorFrame.mtl 

v 1.4375 0 0.5
v 1.4375 1 0.5
v 1.5 -2.707168E-16 0.5625
v 1.5 1 0.5625
v 1.5 -6.316725E-16 -0.5625
v 1.5 1 -0.5625
v 1.4375 0 -0.5
v 1.4375 1 -0.5
v 1.5625 1 0.5
v 1.5625 0 0.5
v 1.5625 1 -0.5
v 1.6125 -2.355956E-17 -0.1822564
v 1.6125 -2.355956E-17 -0.2323148
v 1.3875 -8.014827E-32 -0.1822564
v 1.5625 0 -0.2323148
v 1.4375 -4.007413E-32 -0.2324219
v 1.5625 0 -0.5
v 1.3875 -4.007413E-32 -0.2324219
v 1.6125 -2.355956E-17 0.1822564
v 1.3875 -8.014827E-32 0.1822564
v 1.6125 -2.355956E-17 0.2323148
v 1.5625 0 0.2323148
v 1.4375 -4.007413E-32 0.2324219
v 1.3875 -4.007413E-32 0.2324219
v 1.4375 0.8046783 0.2324219
v 1.4375 0.8046783 -0.2324219
v 1.5625 0.8045712 -0.2323148
v 1.5625 0.8045712 0.2323148
v 1.6125 0.7545128 0.1822564
v 1.3875 0.7545128 0.1822564
v 1.6125 0.7545128 -0.1822564
v 1.3875 0.7545128 -0.1822564
v 1.6125 0.8045712 -0.2323148
v 1.6125 0.8045712 0.2323148
v 1.3875 0.8046783 0.2324219
v 1.3875 0.8046783 -0.2324219
vn -0.7071068 0 0.7071068
vn -0.7071068 0 -0.7071068
vn 0.7071068 0 0.7071068
vn 0 1 0
vn 0 -1 0
vn 0.7071068 0 -0.7071068
vn -1 0 0
vn 1 0 0
vn 0 0 -1
vn 0 0 1
vt 1.4375 0
vt 1.4375 1
vt 1.5 -2.707168E-16
vt 1.5 1
vt -1.5 -6.316725E-16
vt -1.5 1
vt -1.4375 0
vt -1.4375 1
vt 1.5625 1
vt 1.5625 0
vt -1.5625 -0.5
vt -1.5625 0.5
vt -1.5 -0.5625
vt -1.5 0.5625
vt -1.4375 -0.5
vt -1.4375 0.5
vt -1.6125 0.1822564
vt -1.6125 0.2323148
vt -1.3875 0.1822564
vt -1.5625 0.2323148
vt -1.4375 0.2324219
vt -1.3875 0.2324219
vt -1.5625 1
vt -1.5625 0
vt -1.6125 -0.1822564
vt -1.3875 -0.1822564
vt -1.6125 -0.2323148
vt -1.5625 -0.2323148
vt -1.4375 -0.2324219
vt -1.3875 -0.2324219
vt 0.2324219 -4.007413E-32
vt 0.2324219 0.8046783
vt 0.5 0
vt 0.5 1
vt -0.2324219 0.8046783
vt -0.5 1
vt -0.2324219 -4.007413E-32
vt -0.5 0
vt 0.2323148 0.8045712
vt 0.2323148 0
vt -0.2323148 0.8045712
vt -0.2323148 0
vt -1.6125 -2.355956E-17
vt -1.6125 0.7545128
vt -1.3875 -8.014827E-32
vt -1.3875 0.7545128
vt 1.6125 -2.355956E-17
vt 1.3875 -8.014827E-32
vt 1.6125 0.7545128
vt 1.3875 0.7545128
vt 0.2323148 -2.355956E-17
vt 0.1822564 0.7545128
vt -0.1822564 0.7545128
vt -0.1822564 -2.355956E-17
vt -0.2323148 -2.355956E-17
vt 0.1822564 -2.355956E-17
vt -1.6125 0.8045712
vt -1.5625 0.8045712
vt 1.6125 0.8045712
vt 1.5625 0.8045712
vt 0.1822564 -8.014827E-32
vt -0.1822564 -8.014827E-32
vt 1.4375 -4.007413E-32
vt 1.3875 -4.007413E-32
vt 1.4375 0.8046783
vt 1.3875 0.8046783
vt -1.3875 -4.007413E-32
vt -1.4375 -4.007413E-32
vt -1.3875 0.8046783
vt -1.4375 0.8046783

usemtl stone (Instance)
usemap stone (Instance)
f 3/3/1 2/2/1 1/1/1
f 2/2/1 3/3/1 4/4/1
f 7/7/2 6/6/2 5/5/2
f 6/6/2 7/7/2 8/8/2
f 4/4/3 10/10/3 9/9/3
f 10/10/3 4/4/3 3/3/3
f 6/13/4 9/12/4 11/11/4
f 9/12/4 6/13/4 4/14/4
f 4/14/4 6/13/4 8/15/4
f 4/14/4 8/15/4 2/16/4
f 14/19/5 13/18/5 12/17/5
f 13/18/5 14/19/5 15/20/5
f 15/20/5 14/19/5 16/21/5
f 15/20/5 16/21/5 17/12/5
f 17/12/5 16/21/5 5/14/5
f 16/21/5 14/19/5 18/22/5
f 7/16/5 5/14/5 16/21/5
f 11/23/6 5/5/6 6/6/6
f 5/5/6 11/23/6 17/24/6
f 21/27/5 20/26/5 19/25/5
f 20/26/5 21/27/5 22/28/5
f 20/26/5 22/28/5 23/29/5
f 23/29/5 22/28/5 10/11/5
f 23/29/5 10/11/5 3/13/5
f 23/29/5 3/13/5 1/15/5
f 20/26/5 23/29/5 24/30/5
f 1/33/7 25/32/7 23/31/7
f 2/34/7 25/32/7 1/33/7
f 2/34/7 26/35/7 25/32/7
f 8/36/7 26/35/7 2/34/7
f 8/36/7 16/37/7 26/35/7
f 16/37/7 8/36/7 7/38/7
f 15/40/8 17/33/8 27/39/8
f 11/34/8 27/39/8 17/33/8
f 27/39/8 11/34/8 9/36/8
f 27/39/8 9/36/8 28/41/8
f 28/41/8 9/36/8 22/42/8
f 22/42/8 9/36/8 10/38/8

usemtl lightStone (Instance)
usemap lightStone (Instance)
f 20/45/9 29/44/9 19/43/9
f 29/44/9 20/45/9 30/46/9
f 30/26/5 31/17/5 29/25/5
f 31/17/5 30/26/5 32/19/5
f 31/49/10 14/48/10 12/47/10
f 14/48/10 31/49/10 32/50/10
f 33/39/8 31/52/8 13/51/8
f 31/52/8 33/39/8 34/41/8
f 31/52/8 34/41/8 29/53/8
f 29/53/8 34/41/8 19/54/8
f 19/54/8 34/41/8 21/55/8
f 12/56/8 13/51/8 31/52/8
f 15/24/9 33/57/9 13/43/9
f 33/57/9 15/24/9 27/58/9
f 27/28/4 34/18/4 33/27/4
f 34/18/4 27/28/4 28/20/4
f 34/59/10 22/10/10 21/47/10
f 22/10/10 34/59/10 28/60/10
f 24/31/7 30/52/7 20/61/7
f 35/32/7 30/52/7 24/31/7
f 35/32/7 32/53/7 30/52/7
f 36/35/7 32/53/7 35/32/7
f 36/35/7 14/62/7 32/53/7
f 14/62/7 36/35/7 18/37/7
f 25/65/10 24/64/10 23/63/10
f 24/64/10 25/65/10 35/66/10
f 36/30/4 25/21/4 26/29/4
f 25/21/4 36/30/4 35/22/4
f 36/69/9 16/68/9 18/67/9
f 16/68/9 36/69/9 26/70/9
